<?xml version="1.0" encoding="UTF-8" standalone="no"?>
<!-- Created with Inkscape (http://www.inkscape.org/) -->

<svg
   xmlns:dc="http://purl.org/dc/elements/1.1/"
   xmlns:cc="http://creativecommons.org/ns#"
   xmlns:rdf="http://www.w3.org/1999/02/22-rdf-syntax-ns#"
   xmlns:svg="http://www.w3.org/2000/svg"
   xmlns="http://www.w3.org/2000/svg"
   xmlns:xlink="http://www.w3.org/1999/xlink"
   xmlns:sodipodi="http://sodipodi.sourceforge.net/DTD/sodipodi-0.dtd"
   xmlns:inkscape="http://www.inkscape.org/namespaces/inkscape"
   width="256"
   height="256"
   viewBox="0 0 256 256"
   version="1.1"
   id="svg5"
   inkscape:version="0.92.5 (2060ec1f9f, 2020-04-08)"
   sodipodi:docname="ubiquity.svg">
  <metadata
     id="metadata13">
    <rdf:RDF>
      <cc:Work
         rdf:about="">
        <dc:format>image/svg+xml</dc:format>
        <dc:type
           rdf:resource="http://purl.org/dc/dcmitype/StillImage" />
        <dc:title />
      </cc:Work>
    </rdf:RDF>
  </metadata>
  <sodipodi:namedview
     id="namedview7"
     pagecolor="#ffffff"
     bordercolor="#000000"
     borderopacity="0.25"
     inkscape:showpageshadow="2"
     inkscape:pageopacity="0.0"
     inkscape:pagecheckerboard="0"
     inkscape:deskcolor="#d1d1d1"
     inkscape:document-units="px"
     showgrid="false"
     inkscape:zoom="3.15625"
     inkscape:cx="18.69307"
     inkscape:cy="128"
     inkscape:window-width="1920"
     inkscape:window-height="1019"
     inkscape:window-x="0"
     inkscape:window-y="33"
     inkscape:window-maximized="1"
     inkscape:current-layer="svg5"
     showguides="false" />
  <defs
     id="defs2">
    <linearGradient
       inkscape:collect="always"
       xlink:href="#linearGradient1095"
       id="linearGradient3500"
       x1="30"
       y1="30"
       x2="2"
       y2="2"
       gradientUnits="userSpaceOnUse"
       gradientTransform="scale(8)" />
    <linearGradient
       inkscape:collect="always"
       id="linearGradient1095">
      <stop
         style="stop-color:#b4d270;stop-opacity:1;"
         offset="0"
         id="stop1091" />
      <stop
         style="stop-color:#77b842;stop-opacity:1;"
         offset="1"
         id="stop1093" />
    </linearGradient>
  </defs>
  <path
     d="M 104,17 C 31.190476,17 16,32.518536 16,105 v 48 c 0,72.48146 15.190476,88 88,88 h 48 c 72.80952,0 88,-15.51854 88,-88 V 105 C 240,32.518536 224.80952,17 152,17"
     style="opacity:0.2;fill:#000000;stroke-width:8;stroke-linecap:round;stroke-linejoin:round"
     id="path563" />
  <path
     id="path530"
     style="fill:url(#linearGradient3500);fill-opacity:1;stroke-width:8;stroke-linecap:round;stroke-linejoin:round"
     d="M 104,16 C 31.190548,16 16,31.518608 16,104 v 48 c 0,72.4814 15.190548,88 88,88 h 48 c 72.80946,0 88,-15.5186 88,-88 V 104 C 240,31.518608 224.80946,16 152,16 Z" />
  <rect
     style="opacity:0.5;fill:#ffffff;stroke-width:16;stroke-linecap:square;stroke-linejoin:round"
     id="rect337"
     width="160"
     height="48"
     x="48"
     y="152"
     ry="16" />
  <path
     id="rect3197"
     style="opacity:1;fill:#ffffff;stroke-width:4.31259155;stroke-linecap:square;stroke-linejoin:round"
     d="m 170.19802,125.56436 c -2.55717,0 -4.61584,1.79705 -4.61584,4.02926 v 42.65353 l -11.70102,-10.22212 c -1.80819,-1.5784 -4.71889,-1.57839 -6.52709,0 -1.80819,1.57843 -1.80818,4.11923 0,5.69764 l 19.58041,17.10019 c 1.80819,1.57841 4.71889,1.57841 6.52708,0 l 19.58041,-17.10019 c 1.80819,-1.57842 1.80819,-4.11922 0,-5.69764 -1.80819,-1.57839 -4.71891,-1.57839 -6.52709,0 l -11.70101,10.22212 v -42.65353 c 0,-2.23221 -2.05868,-4.02926 -4.61585,-4.02926 z"
     sodipodi:nodetypes="sscccccccsccss"
     inkscape:connector-curvature="0" />
  <g
     transform="matrix(1.4452875,0,0,1.4007565,18.877548,17.757629)"
     id="g31">
    <path
       style="fill:#eeeeee;fill-opacity:1;fill-rule:nonzero;stroke:none"
       d="m 23.25,58.28125 c -2.855469,3.636719 -2.613281,8.917969 0.71875,12.25 3.613281,3.613281 9.46875,3.613281 13.0625,0 L 51.355469,56.199219 C 42.6875,50.71875 31.230469,51.40625 23.25,58.28125 Z m 0,0"
       id="path11"
       inkscape:connector-curvature="0" />
    <path
       style="fill:#eeeeee;fill-opacity:1;fill-rule:nonzero;stroke:none"
       d="m 104.03125,57.46875 c -3.61328,-3.613281 -9.46875,-3.613281 -13.0625,0 L 76.386719,72.0625 c 8.75,5.542969 20.332031,4.792969 28.312501,-2.238281 2.92578,-3.65625 2.69531,-8.980469 -0.66797,-12.355469 z m 0,0"
       id="path13"
       inkscape:connector-curvature="0" />
    <path
       style="fill:#ffffff;fill-opacity:1;fill-rule:nonzero;stroke:none"
       d="M 74.625,73.792969 C 73.167969,72.875 71.800781,71.800781 70.53125,70.53125 c -9.261719,-9.261719 -9.261719,-24.25 0,-33.5 3.613281,-3.613281 3.613281,-9.46875 0,-13.0625 -3.613281,-3.613281 -9.46875,-3.613281 -13.0625,0 l -33.5,33.5 c 7.988281,-7.988281 20.25,-9.0625 29.40625,-3.261719 1.457031,0.917969 2.824219,1.992188 4.09375,3.261719 9.261719,9.261719 9.261719,24.25 0,33.5 -3.613281,3.613281 -3.613281,9.46875 0,13.0625 3.613281,3.61328 9.46875,3.61328 13.0625,0 L 104.01953,70.550781 C 96.042969,78.519531 83.78125,79.59375 74.625,73.792969 Z m 0,0"
       id="path15"
       inkscape:connector-curvature="0" />
  </g>
</svg>
